<svg width="109" height="24" viewBox="0 0 109 24" fill="#FF5E26" xmlns="http://www.w3.org/2000/svg">
<path d="M31.0167 0.369833H37.8643C38.835 5.35557 39.7985 10.3177 40.7668 15.2943H41.4499C41.4307 15.025 41.4139 14.7648 41.39 14.5064C41.2725 13.1071 41.1551 11.7097 41.0353 10.3104C40.8627 8.28151 40.6853 6.25082 40.5128 4.22195C40.4097 2.99553 40.3138 1.77094 40.2084 0.544516C40.1964 0.397128 40.2491 0.344359 40.4528 0.346178C42.2576 0.353457 44.06 0.355276 45.8647 0.351637C46.1044 0.351637 46.1883 0.395308 46.1883 0.590006C46.1811 8.16505 46.1835 15.7401 46.1835 23.3152C46.1835 23.5287 46.0437 23.6354 45.7641 23.6354C43.8011 23.6354 41.8382 23.6354 39.8752 23.6354C39.7961 23.6354 39.7146 23.6354 39.6355 23.6354C39.161 23.6227 39.1394 23.6026 39.0771 23.2569C38.835 21.9304 38.5881 20.6021 38.3413 19.2756C38.0057 17.4706 37.6678 15.6673 37.3274 13.8641C37.1021 12.6722 36.8744 11.4786 36.6468 10.2867C36.5653 9.85547 36.4886 9.42241 36.3999 8.99116C36.328 8.65089 36.2944 8.63815 35.724 8.73095C36.141 13.6858 36.5605 18.6497 36.9799 23.6263H31.0167V0.369833Z" fill="#FF5E26" fill-opacity="1"/>
<path d="M69.461 0.37711C69.461 0.682805 69.461 0.975763 69.461 1.26872C69.4586 4.03453 69.4562 6.80034 69.4466 9.56615C69.4466 9.77905 69.4993 9.88459 69.8205 9.87185C70.2375 9.85365 70.6569 9.86457 71.0764 9.87731C71.3041 9.88459 71.3592 9.82272 71.3592 9.65714C71.3472 7.14061 71.3448 4.62227 71.34 2.10574C71.34 1.52711 71.34 0.948469 71.34 0.358914H77.3823V23.6336C77.2768 23.6336 77.1714 23.6336 77.0659 23.6336C75.2731 23.6336 73.478 23.6281 71.6852 23.639C71.4119 23.639 71.3544 23.5717 71.3544 23.3807C71.3616 21.6247 71.3544 19.8688 71.3544 18.1129C71.3544 16.9137 71.3544 15.7164 71.3544 14.5173C71.3544 14.1407 71.3544 14.1425 70.8727 14.1479C70.5036 14.1516 70.1345 14.1625 69.7677 14.1461C69.5161 14.1352 69.4634 14.208 69.4634 14.379C69.4658 17.2886 69.4634 20.1982 69.4634 23.1077C69.4634 23.2715 69.4634 23.4371 69.4634 23.6136C69.3627 23.6227 69.286 23.6336 69.2093 23.6336C67.3949 23.6336 65.583 23.6299 63.7686 23.6354C63.5146 23.6354 63.4259 23.5863 63.4259 23.3807C63.4331 16.1222 63.4307 8.86378 63.4307 1.60535C63.4307 1.25052 63.4379 0.89752 63.4403 0.542695C63.4403 0.440797 63.4379 0.347997 63.6368 0.347997C65.5398 0.349816 67.4429 0.347997 69.3459 0.347997C69.3747 0.347997 69.401 0.360734 69.4586 0.373471L69.461 0.37711Z" fill="#FF5E26" fill-opacity="1"/>
<path d="M21.1924 0.380742C21.1924 0.453526 21.1924 0.519032 21.1924 0.586358C21.1924 6.56379 21.1924 12.5394 21.1924 18.5168C21.1924 18.5842 21.1876 18.6533 21.1972 18.7206C21.2499 19.161 21.5639 19.4066 22.1175 19.4375C22.7071 19.4721 23.1098 19.261 23.2344 18.8316C23.2824 18.6642 23.292 18.4877 23.292 18.3167C23.2872 12.7013 23.2776 7.08783 23.2704 1.47251C23.2704 1.10495 23.2704 0.737386 23.2704 0.366185H29.3103C29.3175 0.473542 29.327 0.560883 29.327 0.646405C29.327 6.45643 29.351 12.2683 29.3055 18.0783C29.2983 19.1137 29.2455 20.1709 28.7326 21.1716C28.1191 22.3689 27.0549 23.2187 25.4371 23.6117C23.3135 24.1285 21.1564 24.1285 19.0329 23.6172C17.0244 23.135 15.8859 22.0178 15.4737 20.4947C15.2795 19.7778 15.2076 19.03 15.2028 18.2948C15.1741 14.2698 15.1837 10.2467 15.1789 6.2217C15.1765 4.3384 15.1717 2.45328 15.1621 0.569981C15.1621 0.415314 15.1933 0.34253 15.4377 0.344349C17.1418 0.351628 18.8459 0.347989 20.5501 0.349808C20.7562 0.349808 20.9647 0.369824 21.1972 0.382561L21.1924 0.380742Z" fill="#FF5E26" fill-opacity="1"/>
<path d="M78.8348 0.366202H84.8363C84.8363 0.575458 84.8363 0.759239 84.8363 0.944839C84.8363 6.72575 84.8363 12.5085 84.8363 18.2894C84.8363 18.455 84.8555 18.6206 84.8866 18.7843C84.9753 19.2192 85.3108 19.4357 85.8837 19.4376C86.4349 19.4376 86.8328 19.1919 86.9119 18.777C86.9478 18.5914 86.9454 18.4022 86.9454 18.2148C86.9454 13.7531 86.9406 9.2914 86.9359 4.82971C86.9359 3.40496 86.9311 1.9802 86.9311 0.555442C86.9311 0.489936 86.943 0.42443 86.9502 0.362563H92.9566C92.9566 0.56272 92.9566 0.741043 92.9566 0.919365C92.9566 6.67844 92.9637 12.4375 92.947 18.1966C92.9446 19.0372 92.9062 19.8834 92.5994 20.7058C91.9835 22.3671 90.5718 23.4116 88.3452 23.7737C86.5524 24.0667 84.7452 24.0812 82.9668 23.6845C80.7666 23.1951 79.513 22.0378 79.0984 20.3728C78.9186 19.6523 78.8515 18.9062 78.8491 18.1711C78.83 12.3665 78.8372 6.56198 78.8348 0.759239C78.8348 0.631866 78.8348 0.504493 78.8348 0.366202Z" fill="#FF5E26" fill-opacity="1"/>
<path d="M55.8761 10.4851C55.8761 10.4214 55.8761 10.3468 55.8761 10.274C55.8761 8.72185 55.8761 7.16972 55.8761 5.61578C55.8761 5.3028 55.8425 4.99529 55.5141 4.76056C54.9461 4.3566 54.0593 4.52947 53.846 5.09901C53.7741 5.29188 53.7405 5.49932 53.7405 5.7013C53.7357 9.90642 53.7381 14.1115 53.7429 18.3167C53.7429 18.5096 53.7789 18.7097 53.8436 18.8971C53.9682 19.2556 54.2774 19.4285 54.752 19.4394C55.2745 19.4521 55.6052 19.2974 55.7634 18.9408C55.8305 18.7861 55.8737 18.6187 55.8737 18.4568C55.8809 16.8446 55.8737 15.2306 55.8737 13.6184C55.8737 13.582 55.8809 13.5438 55.8856 13.4801C56.0247 13.4747 56.1613 13.4656 56.2979 13.4656C58.0811 13.4638 59.8643 13.4619 61.6499 13.4583C61.8105 13.4583 61.9087 13.4674 61.9063 13.6239C61.8896 14.4154 61.8848 15.2051 61.88 15.9967C61.8728 17.0593 61.8992 18.122 61.8512 19.1828C61.8009 20.2891 61.4701 21.3463 60.5617 22.2543C59.639 23.1769 58.3567 23.6609 56.8923 23.841C55.2098 24.0485 53.5176 24.0539 51.8615 23.6773C49.9536 23.2442 48.7624 22.2725 48.1632 20.8514C47.9044 20.2382 47.8517 19.6104 47.8229 18.979C47.7869 18.2493 47.7534 17.5179 47.751 16.7882C47.7438 13.1399 47.7246 9.49337 47.763 5.84505C47.7726 4.94798 47.7917 4.03999 48.156 3.16112C48.899 1.36698 50.5696 0.409863 52.9472 0.124184C54.4308 -0.0541386 55.9336 -0.0577778 57.4004 0.227901C60.08 0.75195 61.5612 2.19672 61.7793 4.30383C61.9159 5.63033 61.8584 6.96775 61.8824 8.30152C61.8944 8.97296 61.8896 9.64258 61.9039 10.314C61.9063 10.4505 61.88 10.5251 61.6667 10.5251C59.7636 10.5178 57.8606 10.5178 55.9576 10.5142C55.9408 10.5142 55.924 10.5014 55.8808 10.4869L55.8761 10.4851Z" fill="#FF5E26" fill-opacity="1"/>
<path d="M100.686 15.6855C100.686 16.1222 100.686 16.5207 100.686 16.9192C100.684 19.0682 100.677 21.2153 100.686 23.3643C100.686 23.5863 100.597 23.6409 100.315 23.639C98.5698 23.6299 96.8274 23.6354 95.0825 23.6336H94.6918C94.675 23.4098 94.6439 23.2023 94.6439 22.9949C94.6439 21.541 94.6535 20.0872 94.6559 18.6315C94.6583 12.9506 94.6583 7.26798 94.6583 1.58715C94.6583 1.24143 94.6631 0.89388 94.6487 0.548154C94.6415 0.402585 94.7374 0.357095 94.8932 0.351636C95.0921 0.344357 95.291 0.344357 95.49 0.344357C97.6327 0.344357 99.7754 0.346177 101.918 0.342538C103.066 0.340718 104.181 0.446256 105.23 0.822915C106.829 1.39609 107.781 2.37868 108.325 3.6142C108.672 4.40391 108.83 5.22274 108.902 6.05248C109.037 7.62645 109.058 9.20223 108.802 10.7689C108.663 11.6205 108.411 12.4557 107.891 13.2345C106.927 14.6774 105.357 15.4399 103.272 15.62C102.522 15.6837 101.762 15.6655 101.005 15.6855C100.909 15.6873 100.811 15.6855 100.686 15.6855ZM100.686 4.61681C100.686 5.59576 100.686 6.52922 100.686 7.46268C100.684 8.71276 100.681 9.96465 100.667 11.2147C100.667 11.3949 100.72 11.4822 100.981 11.4604C101.237 11.4385 101.499 11.4513 101.755 11.4276C102.359 11.3748 102.762 11.0273 102.764 10.5724C102.764 8.8929 102.764 7.21158 102.764 5.53207C102.764 5.10083 102.45 4.76602 101.892 4.68413C101.508 4.62591 101.106 4.63864 100.686 4.61863V4.61681Z" fill="#FF5E26" fill-opacity="1"/>
<path d="M0.000103641 23.6136C0.000103641 23.4261 0.000103641 23.246 0.000103641 23.0677C0.000103641 15.7201 0.000103641 8.37249 0.000103641 1.02489C0.000103641 0.85203 0.00489719 0.677347 0.000103641 0.504484C-0.00229313 0.397127 0.0360553 0.338899 0.201433 0.340719C2.89061 0.355276 5.58698 0.297048 8.26897 0.398946C10.8863 0.497205 12.6718 1.5726 13.6018 3.43952C14.0404 4.32385 14.2202 5.24821 14.2825 6.18168C14.3879 7.77748 14.4407 9.3751 14.1339 10.9654C13.9637 11.8498 13.6593 12.7013 13.0577 13.4838C12.0583 14.7812 10.5411 15.4653 8.60213 15.6236C7.84235 15.6855 7.07059 15.6837 6.30602 15.6964C6.10229 15.7001 6.02799 15.7328 6.03039 15.8984C6.03997 18.4004 6.03997 20.9023 6.04237 23.4043C6.04237 23.5317 6.05436 23.6409 5.80749 23.639C3.90445 23.6336 2.00141 23.6354 0.0983714 23.6336C0.0791972 23.6336 0.060023 23.6263 0.00250042 23.6172L0.000103641 23.6136ZM6.01601 4.63864C6.01601 4.81697 6.01601 4.97345 6.01601 5.12994C6.0232 7.04235 6.03278 8.95295 6.03758 10.8654C6.03758 11.4804 6.03278 11.4804 6.85728 11.4513C7.68656 11.4222 8.14913 11.0582 8.15153 10.4287C8.15153 9.91006 8.14674 9.38965 8.14674 8.87106C8.14674 7.78657 8.15153 6.7039 8.14434 5.61941C8.13955 5.08081 7.67218 4.67322 7.03703 4.64228C6.72066 4.62773 6.40189 4.64046 6.0184 4.64046L6.01601 4.63864Z" fill="#FF5E26" fill-opacity="1"/>
</svg>
