<?xml version="1.0" encoding="UTF-8"?>
<svg id="Layer_1" xmlns="http://www.w3.org/2000/svg" version="1.1" viewBox="0 0 16 16">
  <!-- Generator: Adobe Illustrator 29.5.1, SVG Export Plug-In . SVG Version: 2.1.0 Build 141)  -->
  <defs>
    <style>
      .st0 {
        fill: #c70000;
      }
    </style>
  </defs>
  <polygon class="st0" points="12 3 12 2 11 2 11 7 12 7 12 4 13 4 13 3 12 3"/>
  <rect class="st0" x="13" y="4" width="1" height="1"/>
  <rect class="st0" x="12" y="11" width="1" height="1"/>
  <rect class="st0" y="12" width="1" height="1"/>
  <polygon class="st0" points="2 10 4 10 4 13 5 13 5 10 5 9 2 9 2 10"/>
  <path class="st0" d="M7,9h-1v5h1v-2h2v2h1v-5h-3ZM9,11h-2v-1h2v1Z"/>
  <rect class="st0" x="1" y="13" width="3" height="1"/>
  <rect class="st0" x="14" y="11" width="1" height="1"/>
  <rect class="st0" x="15" y="9" width="1" height="2"/>
  <rect class="st0" x="11" y="9" width="1" height="2"/>
  <rect class="st0" x="13" y="12" width="1" height="2"/>
  <path class="st0" d="M7,2h-1v5h1v-2h2v2h1V2h-3ZM9,4h-2v-1h2v1Z"/>
  <polygon class="st0" points="15 2 15 3 14 3 14 4 15 4 15 7 16 7 16 2 15 2"/>
  <polygon class="st0" points="0 2 0 3 0 4 0 5 1 5 4 5 4 6 0 6 0 7 4 7 5 7 5 6 5 5 5 4 4 4 1 4 1 3 5 3 5 2 1 2 0 2"/>
</svg>