<?xml version="1.0" encoding="UTF-8"?>
<svg id="Layer_2" data-name="Layer 2" xmlns="http://www.w3.org/2000/svg" viewBox="0 0 549.37 226.86">
  <defs>
    <style>
      .cls-1 {
        fill: #fff;
      }
    </style>
  </defs>
  <g id="Camada_1" data-name="Camada 1">
    <g>
      <path class="cls-1" d="M127.5,222.5h-50V2.5h75l12.5,92.5h2.5L180,2.5h75v220h-50V90h-5l-17.5,132.5h-37.5l-20-132.5h0l2.5,132.5h0Z"/>
      <path class="cls-1" d="M272.5,0c10,0,62.5,0,92.5,2.5,22.5,2.5,35,22.5,37.5,45,0,42.5,0,87.5,2.5,130,0,5,0,10-2.5,15-5,17.5-15,27.5-37.5,30-30,2.5-57.5,0-87.5,2.5h-5V0h0ZM330,42.5v140c10,0,15-2.5,15-12.5V55c0-10-5-15-15-12.5Z"/>
      <path class="cls-1" d="M0,222.5V2.5h57.5v220H0Z"/>
      <path class="cls-1" d="M547.5,85c-2.5-15-12.5-25-27.5-27.5s-30,0-45,15V2.5h-55v220h50c0-5,2.5-7.5,2.5-10h0c2.5,2.5,5,2.5,7.5,5,15,10,30,12.5,45,5,15-5,20-17.5,20-32.5,0-17.5,2.5-32.5,2.5-50,2.5-17.5,2.5-37.5,0-55h0ZM492.5,185c0,5-5,10-10,10s-10-5-10-10v-85c0-5,5-10,10-10s10,5,10,10v85Z"/>
    </g>
  </g>
</svg>