<?xml version="1.0" encoding="UTF-8"?>
<svg id="Layer_2" data-name="Layer 2" xmlns="http://www.w3.org/2000/svg" viewBox="0 0 922.03 139.7">
  <defs>
    <style>
      .cls-1 {
        fill: #ff2a00;
      }
    </style>
  </defs>
  <g id="_레이어_1" data-name="레이어 1">
    <g>
      <path class="cls-1" d="M111.76,111.76v27.94H0V0h27.94v111.76h83.82Z"/>
      <path class="cls-1" d="M139.7,139.7V0h111.76v139.7h-111.76ZM167.64,111.76h55.88V27.94h-55.88v83.82Z"/>
      <path class="cls-1" d="M391.16,0v139.7h-27.94v-55.88h-55.88v55.88h-27.94V0h111.76ZM363.22,27.94h-55.88v27.94h55.88v-27.94Z"/>
      <path class="cls-1" d="M419.1,139.7V0h83.82v27.94h-55.88v83.82h55.88v27.94h-83.82ZM502.93,27.94h27.94v83.82h-27.94V27.94Z"/>
      <path class="cls-1" d="M558.81,139.7v-27.94h27.94V27.94h-27.94V0h83.82v27.94h-27.94v83.82h27.94v27.94h-83.82Z"/>
      <path class="cls-1" d="M698.51,139.7h-27.94V0h27.94v27.94h27.94v27.94h-27.94v83.82ZM726.45,83.82v-27.94h27.94V0h27.94v139.7h-27.94v-55.88h-27.94Z"/>
      <path class="cls-1" d="M922.03,0v27.94h-83.82v83.82h55.88v-27.94h-27.94v-27.94h55.88v83.82h-111.76V0h111.76Z"/>
    </g>
  </g>
</svg>