<?xml version="1.0" encoding="UTF-8"?>
<svg id="Layer_2" data-name="Layer 2" xmlns="http://www.w3.org/2000/svg" viewBox="0 0 777.32 249.75">
  <defs>
    <style>
      .cls-1 {
        fill: #fff;
      }
    </style>
  </defs>
  <g id="Layer_1-2" data-name="Layer 1">
    <path class="cls-1" d="M129.98,87.86c.62,3.95.93,7.33.93,10.17,0,16.4-7.35,29.58-22.03,39.57-12.59,8.51-26.29,12.76-41.11,12.76s-29.19-2.53-41.66-7.59c-11.36-4.57-18.33-9.69-20.92-15.37C1.85,120.23.19,113.38.19,106.84c0-4.81.95-8.67,2.87-11.57,1.91-2.9,4.47-4.35,7.68-4.35,2.1,0,4.44.74,7.04,2.22,6.79,9.38,13.08,16.7,18.89,21.94,5.8,5.25,12.53,7.87,20.18,7.87h2.78c1.23-.25,2.16-.37,2.78-.37,7.16-.98,10.74-4,10.74-9.06,0-.62-.12-1.42-.37-2.4-1.61-4.68-6.79-9.18-15.55-13.5-8.4-3.45-16.79-6.96-25.18-10.54-9.88-4.31-16.11-8.44-18.7-12.39-5.43-8.5-8.15-17.19-8.15-26.07,0-12.94,5.31-24.03,15.92-33.28C31.72,6.1,45.18,1.48,61.47,1.48h6.85c2.96,0,6.17.66,9.63,1.97,7.65,2.89,12.65,4.33,15,4.33,1.6,0,3.95-.49,7.04-1.48,3.08-.99,5.37-1.48,6.85-1.48,1.73,0,3.27.49,4.63,1.48,4.07,2.72,7.28,5.43,9.63,8.15,1.6,1.85,3.45,4.75,5.55,8.7,1.23,2.1,1.85,5.31,1.85,9.63,0,5.06-.99,9.14-2.96,12.22-2.59,3.95-6.61,5.93-12.04,5.93-3.83,0-7.28-1.6-10.37-4.81-1.11-1.11-3.46-4.26-7.04-9.44-1.98-2.96-4.44-5.12-7.41-6.48-2.96-1.36-6.17-2.04-9.63-2.04-3.83,0-7.35.65-10.55,1.94-3.21,1.3-5.22,2.68-6.02,4.16-.8,1.48-1.2,2.84-1.2,4.07,0,3.08,1.57,5.98,4.72,8.69,3.15,2.71,6.63,4.56,10.46,5.55,14.07,3.7,24.19,7.09,30.37,10.17,13.7,6.66,21.42,15.04,23.15,25.14Z"/>
    <path class="cls-1" d="M233.97,128.46c.49.99.74,2.1.74,3.34,0,3.59-2.47,6.99-7.41,10.2-4.94,3.22-11.6,5.75-20,7.61-1.73.37-3.21.56-4.44.56-2.84,0-6.3-1.6-10.37-4.81-3.21-2.59-6.05-4.5-8.52-5.74-.74-.37-3.18,1.39-7.31,5.28-4.14,3.89-7.62,5.83-10.46,5.83-14.81,0-25.18-1.78-31.11-5.35-3.21-1.97-6.17-5.72-8.89-11.26-1.85-4.06-2.78-8.12-2.78-12.18,0-8.49,3.27-15.51,9.81-21.04,7.9-6.64,19.63-9.97,35.18-9.97h3.52c1.97,0,3.52-.31,4.63-.93,1.11-.62,2.16-2.2,3.15-4.75.99-2.55,1.48-5.44,1.48-8.67,0-4.22-.99-7.79-2.96-10.71-1.98-2.92-4.88-4.38-8.7-4.38-.99,0-2.01.1-3.06.28-1.05.19-4.23,4.31-9.54,12.35-2.59,3.9-5.49,6.19-8.7,6.88-3.21.69-6.17,1.04-8.89,1.04-3.21,0-5.55-.75-7.04-2.25-1.48-1.5-2.22-4.3-2.22-8.42,0-3.62.83-6.67,2.5-9.17,1.67-2.49,5.55-5.27,11.67-8.33,6.11-3.06,11.54-5.11,16.29-6.17,4.75-1.06,10.71-1.59,17.87-1.59,16.66,0,28.45,3.96,35.37,11.87,6.05,6.93,9.07,18,9.07,33.2v25.04c0,4.08,1.73,6.87,5.18,8.35,3.45,1.48,5.43,2.78,5.93,3.89ZM180.64,124.06c.37-1.6.68-3.02.93-4.26.25-1.23.37-2.41.37-3.52,0-2.84-.99-5.99-2.96-9.44-1.11-1.85-2.72-2.78-4.81-2.78-1.73,0-3.49.53-5.28,1.57-1.79,1.05-3.3,2.5-4.54,4.35-1.24,1.85-1.85,4.14-1.85,6.85,0,1.98.34,3.95,1.02,5.93.68,1.98,1.57,3.83,2.68,5.55,1.11,1.73,2.71,2.59,4.81,2.59,1.97,0,3.95-.68,5.93-2.04,1.97-1.36,3.21-2.96,3.7-4.81Z"/>
    <path class="cls-1" d="M416.81,135.72c.37,1.85.15,3.49-.65,4.91-.8,1.42-3.18,3.12-7.13,5.09-3.21,1.61-6.42,2.75-9.63,3.43-3.21.68-6.6,1.02-10.18,1.02s-6.79-.28-10-.83c-3.21-.56-6.45-1.33-9.72-2.31-3.27-.99-5.83-2.34-7.68-4.07-1.85-1.73-2.78-3.89-2.78-6.48,0-.86.19-1.94.56-3.24s1.7-2.78,3.98-4.44c2.28-1.67,3.43-3.67,3.43-6.02v-29.26c0-6.91-.83-11.6-2.5-14.07-1.67-2.47-4.17-3.7-7.5-3.7-4.44,0-7.41,1.73-8.89,5.18-.99,2.35-1.48,6.17-1.48,11.48v30.92c0,1.61,1.3,4.01,3.89,7.22,1.36,1.73,2.04,3.27,2.04,4.63,0,5.31-2.41,9.14-7.22,11.48-4.81,2.35-11.97,3.52-21.48,3.52-7.41,0-12.96-.37-16.66-1.11-5.31-1.11-9.81-3.27-13.52-6.48-.99-.86-1.48-1.97-1.48-3.33,0-1.11.25-2.1.74-2.96.49-.86,1.36-1.91,2.59-3.15,2.22-1.48,3.7-2.53,4.44-3.15,1.23-.99,1.85-2.59,1.85-4.81v-31.66c0-5.68-.37-9.63-1.11-11.85-1.36-3.95-4.14-5.92-8.33-5.92-4.94,0-8.15,2.35-9.63,7.04-.86,2.72-1.3,7.35-1.3,13.89v31.85c0,1.48,1.08,3.3,3.24,5.46,2.16,2.16,2.99,4.04,2.5,5.65-.99,2.96-3.09,5.31-6.3,7.04-2.47,1.36-5.53,2.29-9.17,2.78-3.64.49-7.25.89-10.83,1.2-3.58.31-6.11.46-7.59.46-3.21,0-6.2-.19-8.98-.56-2.78-.37-5.55-.95-8.33-1.76-2.78-.8-5-2.19-6.67-4.17-1.67-1.97-2.5-4.07-2.5-6.3,0-1.23.25-2.28.74-3.15,2.96-2.59,5.25-4.88,6.85-6.85,1.6-1.97,2.41-4.01,2.41-6.11v-44.25c0-2.22-1.64-4.19-4.91-5.93-3.27-1.73-4.91-3.52-4.91-5.37,0-2.96,1.05-5.34,3.15-7.13,2.1-1.79,4.94-3.3,8.52-4.54,5.93-1.97,12.06-3.95,18.42-5.92,6.36-1.97,11.57-2.96,15.65-2.96,5.43-.49,8.7,2.35,9.81,8.52.49,4.44.83,7.38,1.02,8.79.19,1.42.52,2.13,1.02,2.13.74,0,3.08-2.25,7.04-6.76,3.95-4.5,7.16-7.25,9.63-8.24,6.3-2.59,12.22-3.89,17.78-3.89,3.95,0,7.96.62,12.04,1.85,3.08.87,5.83,3.06,8.24,6.57s4.78,7.01,7.13,10.46c.62,0,1.17-.43,1.67-1.3,4.2-6.3,8.39-10.8,12.59-13.52,4.81-3.08,10.68-4.63,17.59-4.63,12.71,0,21.17,3.27,25.37,9.81,4.2,6.54,6.3,18.46,6.3,35.74v33.51c0,1.73,1.42,4.01,4.26,6.85,1.6,1.61,2.47,2.84,2.59,3.7Z"/>
    <path class="cls-1" d="M565.68,22.96c-4.57,2.47-7.25,4.26-8.05,5.37-.8,1.11-1.2,3.27-1.2,6.48v79.06c0,11.48-4.94,20.25-14.81,26.29-7.28,4.44-16.91,7.35-28.89,8.7-4.44.49-10.68.74-18.7.74-9.88,0-18.27-1.08-25.18-3.24-6.91-2.16-13.46-5.71-19.63-10.65-2.72-2.34-5.09-5.8-7.13-10.37-2.04-4.57-3.06-9.19-3.06-13.89,0-4.44.93-8.49,2.78-12.13,1.85-3.64,4.88-6.63,9.07-8.98,1.48-.74,3.52-1.48,6.11-2.22,2.59-.74,5.18-1.11,7.78-1.11,5.18,0,9.5,1.24,12.96,3.7,4.32,3.09,7.22,8.03,8.7,14.81.37,1.85.56,3.52.56,5s-.19,3.21-.56,5.18c-.37,1.98-.56,3.27-.56,3.89,0,1.73.8,3.09,2.41,4.07,1.6.99,3.45,1.48,5.55,1.48,3.21,0,6.11-.95,8.7-2.87,2.59-1.91,3.89-4.29,3.89-7.13V35.37c0-2.96-2.16-5.43-6.48-7.41-5.31-2.47-8.55-4.5-9.72-6.11-1.17-1.6-1.76-3.45-1.76-5.55,0-5.18,2.71-9.07,8.15-11.67,2.34-1.11,7.25-2.16,14.72-3.15,7.47-.99,15.34-1.48,23.61-1.48,10.86,0,20.06.99,27.59,2.96,2.71.74,4.66,2.04,5.83,3.89,1.17,1.85,1.76,4.07,1.76,6.67,0,4.57-1.48,7.72-4.44,9.44Z"/>
    <path class="cls-1" d="M669.07,128.46c.49.99.74,2.1.74,3.34,0,3.59-2.47,6.99-7.41,10.2-4.94,3.22-11.6,5.75-20,7.61-1.73.37-3.21.56-4.44.56-2.84,0-6.3-1.6-10.37-4.81-3.21-2.59-6.05-4.5-8.52-5.74-.74-.37-3.18,1.39-7.31,5.28-4.14,3.89-7.62,5.83-10.46,5.83-14.81,0-25.18-1.78-31.11-5.35-3.21-1.97-6.17-5.72-8.89-11.26-1.85-4.06-2.78-8.12-2.78-12.18,0-8.49,3.27-15.51,9.81-21.04,7.9-6.64,19.63-9.97,35.18-9.97h3.52c1.97,0,3.52-.31,4.63-.93,1.11-.62,2.16-2.2,3.15-4.75.99-2.55,1.48-5.44,1.48-8.67,0-4.22-.99-7.79-2.96-10.71-1.98-2.92-4.88-4.38-8.7-4.38-.99,0-2.01.1-3.06.28-1.05.19-4.23,4.31-9.54,12.35-2.59,3.9-5.49,6.19-8.7,6.88-3.21.69-6.17,1.04-8.89,1.04-3.21,0-5.55-.75-7.04-2.25-1.48-1.5-2.22-4.3-2.22-8.42,0-3.62.83-6.67,2.5-9.17,1.67-2.49,5.55-5.27,11.67-8.33,6.11-3.06,11.54-5.11,16.29-6.17,4.75-1.06,10.71-1.59,17.87-1.59,16.66,0,28.45,3.96,35.37,11.87,6.05,6.93,9.07,18,9.07,33.2v25.04c0,4.08,1.73,6.87,5.18,8.35,3.45,1.48,5.43,2.78,5.93,3.89ZM615.75,124.06c.37-1.6.68-3.02.93-4.26.25-1.23.37-2.41.37-3.52,0-2.84-.99-5.99-2.96-9.44-1.11-1.85-2.72-2.78-4.81-2.78-1.73,0-3.49.53-5.28,1.57-1.79,1.05-3.3,2.5-4.54,4.35-1.24,1.85-1.85,4.14-1.85,6.85,0,1.98.34,3.95,1.02,5.93.68,1.98,1.57,3.83,2.68,5.55,1.11,1.73,2.71,2.59,4.81,2.59,1.97,0,3.95-.68,5.93-2.04,1.97-1.36,3.21-2.96,3.7-4.81Z"/>
    <path class="cls-1" d="M776.95,60.9c-.37,2.22-3.52,4.44-9.44,6.66-2.84,1.11-4.44,2.4-4.81,3.88-3.33,12.82-6.67,25.64-10,38.46-4.07,14.3-8.52,25.83-13.33,34.58-6.17,11.22-14.2,20.96-24.07,29.21-4.57,3.82-9.69,6.72-15.37,8.69-4.57,1.6-8.58,2.4-12.04,2.4-7.78,0-14.94-2.03-21.48-6.08-7.16-4.43-10.74-9.84-10.74-16.23,0-.74.12-1.84.37-3.32,1.36-5.65,2.59-9.53,3.7-11.62,1.97-3.56,4.32-5.59,7.04-6.08,2.71-.49,4.81-.74,6.3-.74,3.82,0,7.1,1.04,9.81,3.12,2.71,2.08,4.87,5.51,6.48,10.28,1.11,3.18,2.28,5.38,3.52,6.61,1.23,1.22,2.59,1.83,4.07,1.83,3.21,0,4.81-2.03,4.81-6.1,0-4.81-2.04-12.02-6.11-21.63-2.96-7.02-7.78-16.94-14.44-29.76-5.43-10.1-10.8-20.27-16.11-30.5-.99-1.72-3.03-3.3-6.11-4.71-3.09-1.42-5.16-2.86-6.2-4.35-1.05-1.48-1.57-2.96-1.57-4.44,0-2.46,1.11-4.81,3.33-7.02,2.22-2.22,5.34-3.82,9.35-4.81,4.01-.98,8.7-1.85,14.07-2.59s10.03-1.11,13.98-1.11c4.69,0,8.73.28,12.13.83,3.39.56,6.94,1.57,10.65,3.06,2.1.74,3.89,2.1,5.37,4.07,1.48,1.98,2.22,4.14,2.22,6.48,0,1.48-.43,2.84-1.3,4.07-1.24,1.73-2.19,3.24-2.87,4.54-.68,1.3-1.02,2.62-1.02,3.98,0,1.11.25,2.16.74,3.15,3.08,6.42,4.81,9.88,5.18,10.37,1.73,2.72,3.82,4.2,6.3,4.44,2.1,0,3.89-1.11,5.37-3.33,1.48-2.22,2.38-4.47,2.68-6.76.31-2.28.52-3.92.65-4.91.12-.99.19-1.85.19-2.59,0-1.36-.19-2.75-.56-4.17-.37-1.42-1.54-2.99-3.52-4.72-1.98-1.73-2.96-3.83-2.96-6.3,0-.86.31-1.91.93-3.15,1.6-2.59,4.88-4.66,9.81-6.2,4.94-1.54,10.18-2.31,15.74-2.31,7.16,0,12.53,1.11,16.11,3.33.86.49,1.67,1.36,2.41,2.59.74,1.23,1.11,2.84,1.11,4.81,0,.99-.12,2.34-.37,4.07Z"/>
    <g>
      <path class="cls-1" d="M68.71,220.74c2.96,0,5.1.77,6.44,2.31,1.34,1.54,2.01,3.64,2.01,6.3,0,3.29-.9,6.83-2.69,10.61-1.79,3.78-3.82,6.65-6.07,8.62-.84.77-1.62,1.16-2.32,1.16-.28,0-1.2-.46-2.74-1.39-.78-.46-1.58-.69-2.43-.69H8.23c-3.03,0-5.16-.44-6.39-1.32-1.23-.88-1.85-2.06-1.85-3.53,0-.56.03-.98.11-1.26.63-2.95,2.88-4.99,6.76-6.12,1.76-.49,2.64-1.23,2.64-2.21v-53.45c0-1.19-1.5-2.23-4.49-3.11-2.99-.88-4.49-2.37-4.49-4.48,0-.56.03-1.02.11-1.37.7-4.5,5.95-7.1,15.73-7.8,2.88-.21,8.23-.32,16.04-.32,4.22,0,7.71.49,10.45,1.48,3.59,1.26,5.38,3.34,5.38,6.22,0,2.11-2.04,4.04-6.12,5.8-1.9.77-2.85,1.93-2.85,3.48v51.96c0,1.34.28,2.32.84,2.95.84.98,2.36,1.48,4.54,1.48.63,0,1.79-.07,3.48-.21,1.69-.14,2.57-.21,2.64-.21,4.36,0,8.27-1.44,11.72-4.33.98-.77,1.72-2.29,2.22-4.54.91-4.01,2.25-6.02,4.01-6.02Z"/>
      <path class="cls-1" d="M109.56,237.3c.7,1.13,1.06,2.22,1.06,3.28,0,2.47-1.95,4.34-5.86,5.6-3.91,1.27-8.32,1.9-13.25,1.9h-5.7c-2.74,0-5.01-.25-6.81-.74-1.79-.49-4.06-1.65-6.81-3.48-1.2-.84-1.79-1.93-1.79-3.27,0-1.97,1.02-3.41,3.06-4.33,1.55-.63,2.74-1.34,3.59-2.11,1.12-1.06,1.69-2.25,1.69-3.59v-16.89c0-1.83-1.48-3.52-4.43-5.07-1.97-1.06-3.41-2.11-4.33-3.17-.35-.49-.53-.91-.53-1.27,0-.98.74-2.15,2.22-3.48,1.06-.98,2.18-1.83,3.38-2.53,4.01-2.39,7.49-4.29,10.45-5.7,5.56-2.67,9.82-4.01,12.77-4.01,1.48,0,2.62.33,3.43,1,.81.67,1.21,1.78,1.21,3.33v38.49c0,1.27.84,2.33,2.53,3.17,2.25,1.13,3.62,2.08,4.12,2.85ZM101.96,180.11c-1.48,2.68-3.8,4.72-6.97,6.12-3.17,1.41-6.65,2.11-10.45,2.11s-6.76-.46-9.08-1.37c-3.03-1.2-4.54-3.17-4.54-5.91,0-2.96,2.06-5.44,6.17-7.44s8.5-3.01,13.14-3.01c2.96,0,5.73.76,8.34,2.27,2.6,1.51,3.91,3.29,3.91,5.33,0,.56-.18,1.2-.53,1.9Z"/>
      <path class="cls-1" d="M173.46,196.26c-3.38,1.9-5.44,3.06-6.17,3.48-.74.42-1.5,1.41-2.27,2.96l-21.01,40c-.84,1.55-1.92,2.83-3.22,3.85-1.3,1.02-2.62,1.53-3.96,1.53-1.2,0-2.34-.39-3.43-1.16-1.09-.78-2.13-2.08-3.11-3.91l-19.53-36.59c-.63-1.2-1.85-2.43-3.64-3.7-1.79-1.27-3.61-2.57-5.44-3.91-.49-.92-.74-1.83-.74-2.75,0-2.33,1.9-4.14,5.7-5.45,3.8-1.3,8.69-1.96,14.67-1.96,5.63,0,9.92.35,12.88,1.06,4.43,1.07,6.65,3.02,6.65,5.85,0,1.21-.65,2.36-1.95,3.46-1.3,1.1-1.95,2.29-1.95,3.57,0,.78.21,1.88.63,3.3.77,2.34,1.41,3.97,1.9,4.9.98,1.99,1.9,2.98,2.74,2.98.42,0,.81-.18,1.16-.53,2.11-2.19,3.73-4.1,4.86-5.72,1.55-2.26,2.32-4.1,2.32-5.51,0-.71-.14-1.24-.42-1.59-.63-.92-1.23-1.87-1.79-2.86-.78-1.41-1.16-2.54-1.16-3.39,0-1.62.88-2.9,2.64-3.82,2.25-1.13,5.84-1.7,10.77-1.7,4.5,0,7.97.6,10.4,1.79,2.43,1.2,3.64,2.5,3.64,3.91,0,.84-.39,1.48-1.16,1.9Z"/>
      <path class="cls-1" d="M219.66,234.36c-2.11,4.36-5.61,7.78-10.5,10.24-4.89,2.46-10.47,3.69-16.73,3.69-7.81,0-14.13-2.44-18.95-7.34-4.82-4.89-7.58-11.31-8.29-19.26-.07-.91-.12-1.71-.16-2.38-.04-.67-.05-1.21-.05-1.64,0-5.14,1.02-9.73,3.06-13.77,2.04-4.05,5.21-7.41,9.5-10.08,2.74-1.69,5.54-2.94,8.39-3.75,2.85-.81,5.79-1.21,8.81-1.21,4.71,0,9.06.93,13.04,2.8,3.97,1.87,6.98,4.27,9.02,7.23,1.48,2.11,2.8,4.66,3.96,7.65,1.16,2.99,1.74,5.61,1.74,7.86,0,1.41-.33,2.55-1,3.43-.67.88-1.71,1.32-3.11,1.32h-22.48c-2.89,0-4.98.35-6.28,1.06-1.3.7-1.95,1.69-1.95,2.96,0,1.06.54,2.27,1.64,3.64,1.09,1.37,2.55,2.64,4.38,3.8,1.83,1.16,3.41,1.97,4.75,2.43,1.34.46,2.92.69,4.75.69s3.8-.95,6.12-2.85c2.32-1.9,4.08-2.85,5.28-2.85,1.27,0,2.48.55,3.64,1.64,1.16,1.09,1.74,2.23,1.74,3.43,0,.42-.11.84-.32,1.27ZM200.66,208.08c.14-.84.21-1.44.21-1.79,0-2.11-.6-3.92-1.79-5.44-1.2-1.51-2.92-2.27-5.17-2.27s-3.92.88-5.22,2.64c-1.3,1.76-1.95,3.66-1.95,5.7,0,2.32.74,3.48,2.22,3.48h8.34c1.9,0,3.02-.77,3.38-2.32Z"/>
      <path class="cls-1" d="M283.21,233.37c1.48,2.05,2.22,4.06,2.22,6.03,0,2.47-1.13,4.46-3.38,5.98-2.25,1.52-4.79,2.27-7.6,2.27h-24.49c-2.89,0-5.49-.79-7.81-2.38-2.32-1.58-3.48-3.54-3.48-5.86,0-1.41.49-2.82,1.48-4.23.49-.7,1.71-1.51,3.64-2.43,1.93-.92,2.9-1.97,2.9-3.17v-48.72c0-1.2-1.02-2.22-3.06-3.07-2.04-.84-3.24-1.69-3.59-2.54-.7-1.62-1.06-3.17-1.06-4.65,0-2.54,1.06-4.49,3.17-5.86,2.11-1.37,4.68-2.06,7.71-2.06h24.49c2.74,0,5.28.86,7.6,2.59,2.32,1.73,3.48,3.83,3.48,6.3,0,1.76-.78,3.63-2.32,5.61-.56.71-1.71,1.22-3.43,1.53-1.73.32-2.59.97-2.59,1.96v49.2c0,.92.88,1.54,2.64,1.85,1.76.32,2.92.86,3.48,1.64Z"/>
      <path class="cls-1" d="M354.33,240.36c.49,3.38-1.69,5.64-6.54,6.77-2.74.63-6.9.95-12.46.95h-3.91c-1.97,0-3.71-.21-5.22-.63-1.51-.42-3.01-1.3-4.49-2.64-.92-.84-1.37-2.11-1.37-3.8,0-1.27.28-2.36.84-3.27.84-1.2,1.44-2.34,1.79-3.43.35-1.09.53-2.73.53-4.91v-12.35c0-2.53-.42-4.75-1.27-6.65-1.13-2.46-2.64-3.69-4.54-3.69-.84,0-1.87.35-3.06,1.06-1.2.7-1.95,1.79-2.27,3.27-.32,1.48-.48,3.34-.48,5.59v13.19c0,1.27.35,2.5,1.06,3.69,1.06,1.41,1.83,2.53,2.32,3.38.91,1.41,1.37,2.71,1.37,3.91,0,2.18-1.58,3.87-4.75,5.07-1.9.7-4.43,1.3-7.6,1.79-.84.14-1.79.25-2.85.32-1.06.07-2.08.11-3.06.11-3.94,0-8.52-.77-13.72-2.32-.99-.28-1.76-.84-2.32-1.69-.56-.84-.84-1.83-.84-2.96,0-1.55.58-2.62,1.74-3.22,1.16-.6,2.02-1.3,2.59-2.11.56-.81.84-1.92.84-3.32v-25.54c0-1.34-1.23-2.6-3.69-3.8-1.2-.56-1.79-1.23-1.79-2.01,0-1.48.63-2.67,1.9-3.59.56-.42,2.04-1.12,4.43-2.11,5.07-2.18,8.66-3.66,10.77-4.43,3.87-1.41,6.93-2.11,9.18-2.11,2.96,0,4.43,1.34,4.43,4.01v6.97c0,.99.14,1.48.42,1.48.21,0,1.55-1.57,4.01-4.7,2.46-3.13,4.78-5.12,6.97-5.96,3.02-1.2,5.91-1.79,8.66-1.79,3.8,0,7.14,1.06,10.03,3.17,2.6,1.9,4.61,4.41,6.02,7.51,1.06,2.26,1.74,4.53,2.06,6.82.32,2.29.48,4.88.48,7.77v20.94c0,.85.6,1.67,1.79,2.49,1.2.81,1.86,1.74,2.01,2.8Z"/>
      <path class="cls-1" d="M439.08,220.74c2.96,0,5.1.77,6.44,2.31,1.34,1.54,2.01,3.64,2.01,6.3,0,3.29-.9,6.83-2.69,10.61-1.79,3.78-3.82,6.65-6.07,8.62-.84.77-1.62,1.16-2.32,1.16-.28,0-1.2-.46-2.74-1.39-.78-.46-1.58-.69-2.43-.69h-52.67c-3.03,0-5.16-.44-6.39-1.32-1.23-.88-1.85-2.06-1.85-3.53,0-.56.03-.98.11-1.26.63-2.95,2.88-4.99,6.76-6.12,1.76-.49,2.64-1.23,2.64-2.21v-53.45c0-1.19-1.5-2.23-4.49-3.11-2.99-.88-4.49-2.37-4.49-4.48,0-.56.03-1.02.11-1.37.7-4.5,5.95-7.1,15.73-7.8,2.88-.21,8.23-.32,16.04-.32,4.22,0,7.71.49,10.45,1.48,3.59,1.26,5.38,3.34,5.38,6.22,0,2.11-2.04,4.04-6.12,5.8-1.9.77-2.85,1.93-2.85,3.48v51.96c0,1.34.28,2.32.84,2.95.84.98,2.36,1.48,4.54,1.48.63,0,1.79-.07,3.48-.21,1.69-.14,2.57-.21,2.64-.21,4.36,0,8.27-1.44,11.72-4.33.98-.77,1.72-2.29,2.22-4.54.91-4.01,2.25-6.02,4.01-6.02Z"/>
      <path class="cls-1" d="M500.84,234.68c-2.96,4.36-6.79,7.69-11.51,9.97-4.72,2.29-9.89,3.43-15.52,3.43-6.54,0-12.63-1.62-18.26-4.86-4.58-2.74-8.11-6.4-10.61-10.98-2.5-4.57-3.75-9.43-3.75-14.57,0-6.97,2.15-12.81,6.44-17.52,3.02-3.38,7.12-6.09,12.3-8.13,5.17-2.04,10.47-3.06,15.89-3.06,3.8,0,7.3.51,10.5,1.53,3.2,1.02,6.03,2.66,8.5,4.91,3.66,3.31,6.46,6.91,8.39,10.82,1.93,3.91,2.9,7.97,2.9,12.19,0,5.56-1.76,10.98-5.28,16.26ZM480.26,216.63c-.63-5.56-1.73-9.67-3.27-12.35-1.27-2.11-2.82-3.17-4.64-3.17-2.04,0-3.48,1.11-4.33,3.32-.84,2.22-1.27,4.98-1.27,8.29v2.53c.14,1.06.21,1.83.21,2.32.56,5.98,1.23,10.1,2.01,12.35,1.06,3.03,2.81,4.54,5.28,4.54.56,0,.98-.03,1.27-.11,2.04-.35,3.45-1.34,4.22-2.96.77-1.62,1.16-3.76,1.16-6.44,0-1.2-.07-2.57-.21-4.12-.14-1.55-.28-2.96-.42-4.22Z"/>
      <path class="cls-1" d="M574.6,240.36c.49,3.38-1.69,5.64-6.54,6.77-2.74.63-6.9.95-12.46.95h-3.91c-1.97,0-3.71-.21-5.22-.63-1.51-.42-3.01-1.3-4.49-2.64-.92-.84-1.37-2.11-1.37-3.8,0-1.27.28-2.36.84-3.27.84-1.2,1.44-2.34,1.79-3.43.35-1.09.53-2.73.53-4.91v-12.35c0-2.53-.42-4.75-1.27-6.65-1.13-2.46-2.64-3.69-4.54-3.69-.84,0-1.87.35-3.06,1.06-1.2.7-1.95,1.79-2.27,3.27-.32,1.48-.48,3.34-.48,5.59v13.19c0,1.27.35,2.5,1.06,3.69,1.06,1.41,1.83,2.53,2.32,3.38.91,1.41,1.37,2.71,1.37,3.91,0,2.18-1.58,3.87-4.75,5.07-1.9.7-4.43,1.3-7.6,1.79-.84.14-1.79.25-2.85.32-1.06.07-2.08.11-3.06.11-3.94,0-8.52-.77-13.72-2.32-.99-.28-1.76-.84-2.32-1.69-.56-.84-.84-1.83-.84-2.96,0-1.55.58-2.62,1.74-3.22,1.16-.6,2.02-1.3,2.59-2.11.56-.81.84-1.92.84-3.32v-25.54c0-1.34-1.23-2.6-3.69-3.8-1.2-.56-1.79-1.23-1.79-2.01,0-1.48.63-2.67,1.9-3.59.56-.42,2.04-1.12,4.43-2.11,5.07-2.18,8.66-3.66,10.77-4.43,3.87-1.41,6.93-2.11,9.18-2.11,2.96,0,4.43,1.34,4.43,4.01v6.97c0,.99.14,1.48.42,1.48.21,0,1.55-1.57,4.01-4.7,2.46-3.13,4.78-5.12,6.97-5.96,3.02-1.2,5.91-1.79,8.66-1.79,3.8,0,7.14,1.06,10.03,3.17,2.6,1.9,4.61,4.41,6.02,7.51,1.06,2.26,1.74,4.53,2.06,6.82.32,2.29.48,4.88.48,7.77v20.94c0,.85.6,1.67,1.79,2.49,1.2.81,1.86,1.74,2.01,2.8Z"/>
      <path class="cls-1" d="M647.35,234.68c.49.56.74,1.2.74,1.9,0,1.34-1.44,2.74-4.33,4.22-2.53,1.27-5.03,2.5-7.49,3.69-2.25,1.34-4.52,2.31-6.81,2.9-2.29.6-4.49.9-6.6.9-3.31,0-5.49-.63-6.54-1.9-.49-.56-.74-1.12-.74-1.69,0-.14.07-.6.21-1.37.14-.77.11-1.34-.11-1.69-.49-1.06-1.13-1.58-1.9-1.58-.63,0-2.31,1.06-5.01,3.17-2.71,2.11-4.98,3.34-6.81,3.69-1.83.35-2.89.53-3.17.53-.56.07-1.41.11-2.53.11-1.69,0-3.41-.19-5.17-.58-1.76-.39-3.69-1-5.81-1.85-5.42-1.97-9.39-5.95-11.93-11.93-1.9-4.5-2.85-9.71-2.85-15.62,0-2.39.17-4.4.53-6.02,1.27-6.76,4.05-12.24,8.34-16.47,5.42-5.28,12.77-7.92,22.06-7.92,1.2,0,2.71.42,4.54,1.27,4.22,1.97,6.4,2.96,6.54,2.96.63,0,.95-.35.95-1.06v-6.65c0-1.34-1.2-2.23-3.59-2.69-2.39-.46-4.05-1.14-4.96-2.06-.56-.56-.84-1.27-.84-2.11s.28-1.72.84-2.64c1.12-1.83,2.99-3.06,5.59-3.69,2.46-.42,4.92-.88,7.39-1.37,3.24-.91,5.73-1.58,7.49-2.01,3.38-.84,5.98-1.27,7.81-1.27,1.62,0,2.85.26,3.69.79s1.27,1.46,1.27,2.8v60.48c0,1.2.21,2.13.63,2.8.42.67,1.37,1,2.85,1,1.2-.07,2.11-.11,2.74-.11,1.34,0,2.32.35,2.96,1.06ZM613.78,215.04v-3.27c0-5-.51-8.23-1.53-9.71-1.02-1.48-2.62-2.22-4.8-2.22-3.17,0-5.54,1.67-7.12,5.01-1.58,3.34-2.37,7.16-2.37,11.45,0,4.86.46,8.55,1.37,11.08,1.41,3.8,3.8,5.7,7.18,5.7,3.1,0,5.17-1.97,6.23-5.91.7-2.6,1.06-6.65,1.06-12.14Z"/>
      <path class="cls-1" d="M700.13,234.68c-2.96,4.36-6.79,7.69-11.51,9.97-4.72,2.29-9.89,3.43-15.52,3.43-6.54,0-12.63-1.62-18.26-4.86-4.57-2.74-8.11-6.4-10.61-10.98-2.5-4.57-3.75-9.43-3.75-14.57,0-6.97,2.15-12.81,6.44-17.52,3.02-3.38,7.12-6.09,12.3-8.13,5.17-2.04,10.47-3.06,15.89-3.06,3.8,0,7.3.51,10.5,1.53,3.2,1.02,6.03,2.66,8.5,4.91,3.66,3.31,6.46,6.91,8.39,10.82,1.93,3.91,2.9,7.97,2.9,12.19,0,5.56-1.76,10.98-5.28,16.26ZM679.55,216.63c-.63-5.56-1.73-9.67-3.27-12.35-1.27-2.11-2.82-3.17-4.64-3.17-2.04,0-3.48,1.11-4.33,3.32-.84,2.22-1.27,4.98-1.27,8.29v2.53c.14,1.06.21,1.83.21,2.32.56,5.98,1.23,10.1,2.01,12.35,1.06,3.03,2.81,4.54,5.28,4.54.56,0,.98-.03,1.27-.11,2.04-.35,3.45-1.34,4.22-2.96.77-1.62,1.16-3.76,1.16-6.44,0-1.2-.07-2.57-.21-4.12-.14-1.55-.28-2.96-.42-4.22Z"/>
      <path class="cls-1" d="M773.89,240.36c.49,3.38-1.69,5.64-6.54,6.77-2.74.63-6.9.95-12.46.95h-3.91c-1.97,0-3.71-.21-5.22-.63-1.51-.42-3.01-1.3-4.49-2.64-.92-.84-1.37-2.11-1.37-3.8,0-1.27.28-2.36.84-3.27.84-1.2,1.44-2.34,1.79-3.43.35-1.09.53-2.73.53-4.91v-12.35c0-2.53-.42-4.75-1.27-6.65-1.13-2.46-2.64-3.69-4.54-3.69-.84,0-1.87.35-3.06,1.06-1.2.7-1.95,1.79-2.27,3.27-.32,1.48-.47,3.34-.47,5.59v13.19c0,1.27.35,2.5,1.06,3.69,1.06,1.41,1.83,2.53,2.32,3.38.91,1.41,1.37,2.71,1.37,3.91,0,2.18-1.58,3.87-4.75,5.07-1.9.7-4.43,1.3-7.6,1.79-.84.14-1.79.25-2.85.32-1.06.07-2.08.11-3.06.11-3.94,0-8.52-.77-13.72-2.32-.99-.28-1.76-.84-2.32-1.69-.56-.84-.84-1.83-.84-2.96,0-1.55.58-2.62,1.74-3.22,1.16-.6,2.02-1.3,2.59-2.11.56-.81.84-1.92.84-3.32v-25.54c0-1.34-1.23-2.6-3.69-3.8-1.2-.56-1.79-1.23-1.79-2.01,0-1.48.63-2.67,1.9-3.59.56-.42,2.04-1.12,4.43-2.11,5.07-2.18,8.66-3.66,10.77-4.43,3.87-1.41,6.93-2.11,9.18-2.11,2.96,0,4.43,1.34,4.43,4.01v6.97c0,.99.14,1.48.42,1.48.21,0,1.55-1.57,4.01-4.7,2.46-3.13,4.78-5.12,6.97-5.96,3.02-1.2,5.91-1.79,8.66-1.79,3.8,0,7.14,1.06,10.03,3.17,2.6,1.9,4.61,4.41,6.02,7.51,1.06,2.26,1.74,4.53,2.06,6.82.32,2.29.47,4.88.47,7.77v20.94c0,.85.6,1.67,1.79,2.49,1.2.81,1.86,1.74,2.01,2.8Z"/>
    </g>
  </g>
</svg>