<?xml version="1.0" encoding="UTF-8"?>
<svg id="Layer_2" data-name="Layer 2" xmlns="http://www.w3.org/2000/svg" viewBox="0 0 109 24">
  <defs>
    <style>
      .cls-1 {
        fill: #fff;
      }
    </style>
  </defs>
  <g id="Layer_1-2" data-name="Layer 1">
    <g>
      <path class="cls-1" d="M31.02.37h6.85c.97,4.99,1.93,9.95,2.9,14.92h.68c-.02-.27-.04-.53-.06-.79-.12-1.4-.23-2.8-.35-4.2-.17-2.03-.35-4.06-.52-6.09-.1-1.23-.2-2.45-.3-3.68-.01-.15.04-.2.24-.2,1.8,0,3.61,0,5.41,0,.24,0,.32.04.32.24,0,7.58,0,15.15,0,22.73,0,.21-.14.32-.42.32h-6.13c-.47-.01-.5-.03-.56-.38-.24-1.33-.49-2.65-.74-3.98-.34-1.81-.67-3.61-1.01-5.41-.23-1.19-.45-2.39-.68-3.58-.08-.43-.16-.86-.25-1.3-.07-.34-.11-.35-.68-.26.42,4.95.84,9.92,1.26,14.9h-5.96V.37Z"/>
      <path class="cls-1" d="M69.46.38v.89c0,2.77,0,5.53-.01,8.3,0,.21.05.32.37.31.42-.02.84,0,1.26,0,.23,0,.28-.05.28-.22-.01-2.52-.01-5.03-.02-7.55V.36h6.04v23.27h-.32c-1.79,0-3.59,0-5.38,0-.27,0-.33-.07-.33-.26,0-1.76,0-3.51,0-5.27v-3.6c0-.38,0-.37-.48-.37-.37,0-.74.01-1.11,0-.25-.01-.3.06-.3.23,0,2.91,0,5.82,0,8.73v.51c-.1,0-.18.02-.25.02-1.81,0-3.63,0-5.44,0-.25,0-.34-.05-.34-.25,0-7.26,0-14.52,0-21.78,0-.35,0-.71,0-1.06,0-.1,0-.19.2-.19,1.9,0,3.81,0,5.71,0,.03,0,.06.01.11.03h0Z"/>
      <path class="cls-1" d="M21.19.38v18.14c0,.07,0,.14,0,.2.05.44.37.69.92.72.59.03.99-.18,1.12-.61.05-.17.06-.34.06-.51,0-5.62-.01-11.23-.02-16.84V.37h6.04c0,.11.02.19.02.28,0,5.81.02,11.62-.02,17.43,0,1.04-.06,2.09-.57,3.09-.61,1.2-1.68,2.05-3.3,2.44-2.12.52-4.28.52-6.4,0-2.01-.48-3.15-1.6-3.56-3.12-.19-.72-.27-1.46-.27-2.2-.03-4.02-.02-8.05-.02-12.07,0-1.88,0-3.77-.02-5.65,0-.15.03-.23.28-.23,1.7,0,3.41,0,5.11,0,.21,0,.41.02.65.03h0Z"/>
      <path class="cls-1" d="M78.83.37h6v17.92c0,.17.02.33.05.49.09.43.42.65,1,.65.55,0,.95-.25,1.03-.66.04-.19.03-.37.03-.56,0-4.46,0-8.92,0-13.39,0-1.42,0-2.85,0-4.27,0-.07.01-.13.02-.19h6.01v.56c0,5.76,0,11.52,0,17.28,0,.84-.04,1.69-.35,2.51-.62,1.66-2.03,2.71-4.25,3.07-1.79.29-3.6.31-5.38-.09-2.2-.49-3.45-1.65-3.87-3.31-.18-.72-.25-1.47-.25-2.2-.02-5.8-.01-11.61-.01-17.41v-.39Z"/>
      <path class="cls-1" d="M55.88,10.49v-4.87c0-.31-.03-.62-.36-.86-.57-.4-1.45-.23-1.67.34-.07.19-.11.4-.11.6,0,4.21,0,8.41,0,12.62,0,.19.04.39.1.58.12.36.43.53.91.54.52.01.85-.14,1.01-.5.07-.15.11-.32.11-.48,0-1.61,0-3.23,0-4.84,0-.04,0-.07.01-.14.14,0,.28-.01.41-.01,1.78,0,3.57,0,5.35,0,.16,0,.26,0,.26.17-.02.79-.02,1.58-.03,2.37,0,1.06.02,2.13-.03,3.19-.05,1.11-.38,2.16-1.29,3.07-.92.92-2.2,1.41-3.67,1.59-1.68.21-3.37.21-5.03-.16-1.91-.43-3.1-1.4-3.7-2.83-.26-.61-.31-1.24-.34-1.87-.04-.73-.07-1.46-.07-2.19,0-3.65-.03-7.29.01-10.94,0-.9.03-1.81.39-2.68.74-1.79,2.41-2.75,4.79-3.04,1.48-.18,2.99-.18,4.45.1,2.68.52,4.16,1.97,4.38,4.08.14,1.33.08,2.66.1,4,.01.67,0,1.34.02,2.01,0,.14-.02.21-.24.21-1.9,0-3.81,0-5.71-.01-.02,0-.03-.01-.08-.03h0Z"/>
      <path class="cls-1" d="M100.69,15.69v1.23c0,2.15,0,4.3,0,6.45,0,.22-.09.28-.37.27-1.75,0-3.49,0-5.23,0h-.39c-.02-.22-.05-.43-.05-.64,0-1.45,0-2.91.01-4.36,0-5.68,0-11.36,0-17.04,0-.35,0-.69,0-1.04,0-.15.09-.19.24-.2.2,0,.4,0,.6,0,2.14,0,4.29,0,6.43,0,1.15,0,2.26.1,3.31.48,1.6.57,2.55,1.56,3.09,2.79.35.79.51,1.61.58,2.44.14,1.57.16,3.15-.1,4.72-.14.85-.39,1.69-.91,2.47-.96,1.44-2.53,2.21-4.62,2.39-.75.06-1.51.05-2.27.07-.1,0-.19,0-.32,0ZM100.69,4.62v2.85c0,1.25,0,2.5-.02,3.75,0,.18.05.27.31.25.26-.02.52,0,.77-.03.6-.05,1.01-.4,1.01-.86v-5.04c0-.43-.31-.77-.87-.85-.38-.06-.79-.05-1.21-.07h0Z"/>
      <path class="cls-1" d="M0,23.61V1.02C0,.85,0,.68,0,.5c0-.11.04-.17.2-.16,2.69.01,5.39-.04,8.07.06,2.62.1,4.4,1.17,5.33,3.04.44.88.62,1.81.68,2.74.11,1.6.16,3.19-.15,4.78-.17.88-.47,1.74-1.08,2.52-1,1.3-2.52,1.98-4.46,2.14-.76.06-1.53.06-2.3.07-.2,0-.28.04-.28.2,0,2.5,0,5,.01,7.51,0,.13.01.24-.23.23-1.9,0-3.81,0-5.71,0-.02,0-.04,0-.1-.02H0ZM6.02,4.64v.49c0,1.91.02,3.82.02,5.74,0,.61,0,.61.82.59.83-.03,1.29-.39,1.29-1.02,0-.52,0-1.04,0-1.56,0-1.08,0-2.17,0-3.25,0-.54-.47-.95-1.11-.98-.32-.01-.64,0-1.02,0h0Z"/>
    </g>
  </g>
</svg>