<?xml version="1.0" encoding="UTF-8"?>
<svg id="Layer_2" data-name="Layer 2" xmlns="http://www.w3.org/2000/svg" viewBox="0 0 1619.65 264.96">
  <defs>
    <style>
      .cls-1 {
        fill: #fff;
      }
    </style>
  </defs>
  <g id="_레이어_1" data-name="레이어 1">
    <g>
      <path class="cls-1" d="M211.97,0v52.99H52.99v52.99h158.97v158.98H0v-52.99h158.97v-52.99H0V0h211.97Z"/>
      <path class="cls-1" d="M472.92,0v264.96h-52.99v-105.98h-105.98v105.98h-52.99V0h211.97ZM419.93,52.99h-105.98v52.99h105.98v-52.99Z"/>
      <path class="cls-1" d="M784.87,0v264.96h-52.99V52.99h-52.99v211.97h-52.99V52.99h-52.99v211.97h-52.99V0h264.96Z"/>
      <path class="cls-1" d="M1089.74,0v264.96h-211.97v-105.98h52.99v52.99h105.98V52.99h-52.99V0h105.98Z"/>
      <path class="cls-1" d="M1354.69,0v264.96h-52.99v-105.98h-105.98v105.98h-52.99V0h211.97ZM1301.7,52.99h-105.98v52.99h105.98v-52.99Z"/>
      <path class="cls-1" d="M1566.66,0h52.99v264.96h-211.97v-52.99h158.97v-52.99h-158.97V0h52.99v105.98h105.98V0Z"/>
    </g>
  </g>
</svg>